With: Anne C. Trebilcock, John Maczko en Mick Dwyer

Shades of Darkness is the story of a young woman named Bridget Avers, Anne C. Trebilcock, who returns to her home town of Autumn Hills to discover a threatening Entity, John Maczko attempting to wipe out the entire population. Aware that she has a tie to the town through a past life, Bridget begins to put together the pieces of a much larger puzzle revealing a horrific course through history that only she has the knowledge to stop. As Bridget confronts the Entity, its massing strength threatens to overtake her and infect the townspeople with its hateful plague. Her two worlds collide blurring the lines between the past and present. She soon realizes that the powerful force the Entity embodies will destroy her and the people of Autumn Hills if she cannot stop it's destructive reign.

General:

Complete name                    : Shades Of Darkness\Shades Of Darkness.avi
Format                           : AVI
Format/Info                      : Audio Video Interleave
File size                        : 1.37 GiB
Duration                         : 1h 21mn
Overall bit rate                 : 2 397 Kbps

Video:

Format                           : MPEG-4 Visual
Format profile                   : Simple@L3
Format settings, BVOP            : No
Format settings, QPel            : No
Format settings, GMC             : No warppoints
Format settings, Matrix          : Default (H.263)
Codec ID                         : XVID
Codec ID/Hint                    : XviD
Duration                         : 1h 21mn
Bit rate                         : 2 162 Kbps
Width                            : 720 pixels
Height                           : 400 pixels
Display aspect ratio             : 16:9
Frame rate                       : 25.000 fps
Color space                      : YUV
Chroma subsampling               : 4:2:0
Bit depth                        : 8 bits
Scan type                        : Progressive
Bits/(Pixel*Frame)               : 0.300
Stream size                      : 1.24 GiB (90%)
Writing library                  : XviD 1.1.2 (UTC 2006-11-01)

Audio:

Format                           : AC-3
Format/Info                      : Audio Coding 3
Format profile                   : Dolby Digital
Mode extension                   : CM (complete main)
Codec ID                         : 2000
Duration                         : 1h 21mn
Bit rate mode                    : Constant
Bit rate                         : 224 Kbps
Channel(s)                       : 2 channels
Channel positions                : Front: L R
Sampling rate                    : 48.0 KHz
Stream size                      : 131 MiB (9%)
Alignment                        : Aligned on interleaves
Interleave, duration             : 32 ms (0.80 video frame)
Interleave, preload duration     : 96 ms
